:FULLY-SPECIFIED
:FORCE-ALL-JOINTS-BE-3DOF
:DEGREES
747
root 3.55514 18.7508 13.2037 8.1451 3.02623 2.56966
lfemur -35.3449 4.68826 -4.53733
ltibia 60.5524 -0 0
lfoot -9.46201 7.99332 -2.10977
ltoes 26.7005 -0 0
rfemur -22.8401 -13.6836 12.0025
rtibia 71.6545 -0 0
rfoot -0.327193 -28.1953 1.53071
rtoes 7.74578 -0 0
lowerback 3.47717 2.1308 -1.60233
upperback -1.17362 2.72125 -2.8843
thorax -3.02333 1.36337 -2.08046
lowerneck -5.98909 -6.71191 -1.69589
upperneck -1.6648 -8.85092 5.38567
head 0.828057 -4.35075 1.72976
lclavicle -1.94998e-15 -1.12077e-14 -4.73075e-31
lhumerus -31.406 -25.2962 59.0819
lradius 58.5799 -0 0
lwrist 16.7978 0 0
lhand -20.7174 -4.86449 -0.0141486
lfingers 7.12502 -0 0
lthumb 5.64709 25.0377 -0.0139022
rclavicle -1.94998e-15 -1.12077e-14 -4.73075e-31
rhumerus -8.78814 26.8591 -63.9563
rradius 89.2285 -0 0
rwrist -1.07895 0 0
rhand -24.8508 -26.9397 0.172753
rfingers 7.12502 -0 0
rthumb 1.65561 -56.8981 0.167235
748
root 3.49571 18.6667 13.3739 8.03123 5.86844 2.40134
lfemur -35.4456 5.23293 -4.95991
ltibia 60.2952 -0 0
lfoot -9.95717 8.49288 -2.10114
ltoes 26.5789 -0 0
rfemur -22.566 -14.0978 12.3758
rtibia 71.0533 -0 0
rfoot -0.971528 -28.4737 1.52445
rtoes 6.7435 -0 0
lowerback 3.39639 2.21674 -1.59715
upperback -1.17232 2.83911 -2.92392
thorax -2.97169 1.42227 -2.12809
lowerneck -5.96429 -6.72462 -1.67629
upperneck -1.70573 -8.86553 5.40008
head 0.811176 -4.35777 1.73208
lclavicle -2.12353e-15 -1.15232e-14 -4.71164e-31
lhumerus -32.3698 -25.0913 60.3976
lradius 58.9845 -0 0
lwrist 16.6107 0 0
lhand -20.6838 -4.91314 -0.0140914
lfingers 7.12502 -0 0
lthumb 5.6796 24.9882 -0.013846
rclavicle -2.12353e-15 -1.15232e-14 -4.71164e-31
rhumerus -9.03128 27.7464 -65.1801
rradius 88.9256 -0 0
rwrist -0.819804 0 0
rhand -24.7686 -26.696 0.172054
rfingers 7.12502 -0 0
rthumb 1.73498 -56.6538 0.166558
749
root 3.43628 18.5826 13.5441 7.9082 8.7103 2.22625
lfemur -35.5503 5.77684 -5.38384
ltibia 60.038 -0 0
lfoot -10.4522 8.99235 -2.08819
ltoes 26.4573 -0 0
rfemur -22.2942 -14.5138 12.7477
rtibia 70.452 -0 0
rfoot -1.61582 -28.7521 1.51506
rtoes 5.74122 -0 0
lowerback 3.3156 2.30268 -1.59209
upperback -1.17111 2.95697 -2.96355
thorax -2.9201 1.48122 -2.17566
lowerneck -5.93948 -6.73733 -1.6567
upperneck -1.74666 -8.88013 5.4145
head 0.794294 -4.36479 1.7344
lclavicle -2.29707e-15 -1.18387e-14 -4.68296e-31
lhumerus -33.3265 -24.8665 61.7071
lradius 59.3891 -0 0
lwrist 16.4235 0 0
lhand -20.6501 -4.96178 -0.0140056
lfingers 7.12502 -0 0
lthumb 5.71211 24.9387 -0.0137617
rclavicle -2.29707e-15 -1.18387e-14 -4.68296e-31
rhumerus -9.29798 28.6289 -66.4184
rradius 88.6228 -0 0
rwrist -0.560653 0 0
rhand -24.6864 -26.4522 0.171006
rfingers 7.12502 -0 0
rthumb 1.81434 -56.4095 0.165543
750
root 3.37685 18.4986 13.7144 7.77522 11.5518 2.04337
lfemur -35.6593 6.31996 -5.80919
ltibia 59.7808 -0 0
lfoot -10.9472 9.49169 -2.07094
ltoes 26.3357 -0 0
rfemur -22.0246 -14.9315 13.1184
rtibia 69.8507 -0 0
rfoot -2.26006 -29.0303 1.50254
rtoes 4.73894 -0 0
lowerback 3.23483 2.38863 -1.58715
upperback -1.16999 3.07483 -3.00318
thorax -2.86855 1.54021 -2.22318
lowerneck -5.91469 -6.75006 -1.63712
upperneck -1.7876 -8.89472 5.42893
head 0.777412 -4.37181 1.73672
lclavicle -2.47061e-15 -1.21543e-14 -4.64474e-31
lhumerus -34.2756 -24.622 63.0098
lradius 59.7937 -0 0
lwrist 16.2364 0 0
lhand -20.6164 -5.01043 -0.0138913
lfingers 7.12502 -0 0
lthumb 5.74462 24.8892 -0.0136494
rclavicle -2.47061e-15 -1.21543e-14 -4.64474e-31
rhumerus -9.58881 29.5061 -67.672
rradius 88.3199 -0 0
rwrist -0.301503 0 0
rhand -24.6042 -26.2085 0.169607
rfingers 7.12502 -0 0
rthumb 1.89371 -56.1652 0.164189
751
root 3.31742 18.4145 13.8846 7.63134 14.3928 1.85158
lfemur -35.7724 6.86226 -6.23606
ltibia 59.5236 -0 0
lfoot -11.4419 9.99085 -2.04937
ltoes 26.2141 -0 0
rfemur -21.7573 -15.3509 13.4877
rtibia 69.2494 -0 0
rfoot -2.90423 -29.3084 1.48689
rtoes 3.73666 -0 0
lowerback 3.15405 2.47458 -1.58233
upperback -1.16894 3.19269 -3.04281
thorax -2.81705 1.59924 -2.27065
lowerneck -5.88989 -6.76279 -1.61754
upperneck -1.82855 -8.90929 5.44338
head 0.76053 -4.37883 1.73904
lclavicle -2.64415e-15 -1.24698e-14 -4.59695e-31
lhumerus -35.2163 -24.3579 64.3053
lradius 60.1983 -0 0
lwrist 16.0492 0 0
lhand -20.5828 -5.05907 -0.0137484
lfingers 7.12502 -0 0
lthumb 5.77713 24.8397 -0.0135089
rclavicle -2.64415e-15 -1.24698e-14 -4.59695e-31
rhumerus -9.90439 30.3775 -68.9418
rradius 88.0171 -0 0
rwrist -0.0423524 0 0
rhand -24.5221 -25.9648 0.16786
rfingers 7.12502 -0 0
rthumb 1.97306 -55.921 0.162497
752
root 3.25799 18.3304 14.0549 7.47548 17.2333 1.64962
lfemur -35.8897 7.40371 -6.6645
ltibia 59.2665 -0 0
lfoot -11.9364 10.4898 -2.0235
ltoes 26.0925 -0 0
rfemur -21.4923 -15.7719 13.8557
rtibia 68.6482 -0 0
rfoot -3.5483 -29.5862 1.46812
rtoes 2.73438 -0 0
lowerback 3.07327 2.56054 -1.57764
upperback -1.16797 3.31055 -3.08244
thorax -2.7656 1.65832 -2.31806
lowerneck -5.8651 -6.77553 -1.59796
upperneck -1.8695 -8.92386 5.45783
head 0.743647 -4.38585 1.74137
lclavicle -2.81769e-15 -1.27853e-14 -4.53961e-31
lhumerus -36.1483 -24.0747 65.593
lradius 60.6028 -0 0
lwrist 15.8621 0 0
lhand -20.5491 -5.10772 -0.0135769
lfingers 7.12502 -0 0
lthumb 5.80963 24.7902 -0.0133404
rclavicle -2.81769e-15 -1.27853e-14 -4.53961e-31
rhumerus -10.2453 31.2426 -70.2288
rradius 87.7142 -0 0
rwrist 0.216798 0 0
rhand -24.4399 -25.7211 0.165762
rfingers 7.12502 -0 0
rthumb 2.05241 -55.6767 0.160467
753
root 3.19856 18.2464 14.2251 7.30634 20.0733 1.43602
lfemur -36.0112 7.94427 -7.09461
ltibia 59.0093 -0 0
lfoot -12.4307 10.9885 -1.99333
ltoes 25.9709 -0 0
rfemur -21.2295 -16.1946 14.2225
rtibia 68.0469 -0 0
rfoot -4.19227 -29.8639 1.44623
rtoes 1.7321 -0 0
lowerback 2.9925 2.64651 -1.57306
upperback -1.16709 3.42841 -3.12208
thorax -2.7142 1.71744 -2.36543
lowerneck -5.84032 -6.78828 -1.57839
upperneck -1.91045 -8.93842 5.47229
head 0.726764 -4.39286 1.7437
lclavicle -2.99124e-15 -1.31009e-14 -4.47271e-31
lhumerus -37.0709 -23.7725 66.8727
lradius 61.0074 -0 0
lwrist 15.6749 0 0
lhand -20.5154 -5.15636 -0.0133768
lfingers 7.12502 -0 0
lthumb 5.84214 24.7407 -0.0131438
rclavicle -2.99124e-15 -1.31009e-14 -4.47271e-31
rhumerus -10.6123 32.1008 -71.5338
rradius 87.4114 -0 0
rwrist 0.475949 0 0
rhand -24.3578 -25.4774 0.163316
rfingers 7.12502 -0 0
rthumb 2.13174 -55.4324 0.158098
